<svg version="1" xmlns="http://www.w3.org/2000/svg" width="430.667" height="430.667" viewBox="0 0 323.000000 323.000000"><path d="M9.3 8.4c.7 1.8 3.3 35.9 4.2 55.6.3 6.9.7 16.1 1 20.5.2 4.4.7 14.7 1 23 .3 8.2.7 19.7 1 25.5 1.9 38.1 2.5 70.6 1.6 86.3-.6 9.5-1.3 22.6-1.6 29.2-.4 6.6-1.3 20.1-2.1 30-1.8 23.1-1.9 21.5 1.1 21.5 3.1 0 3.1.7.3 3.7-1.9 2-2 2.6-.8 3.3 1.1.7 1.2 1.3.2 3.5-1.6 3.5-1.5 3.7.9 2.3 1.7-1 2.3-1 2.6-.1.9 2.4 2.3 1.3 2.1-1.5-.1-1.5-.1-4.2 0-6l.2-3.4 11 .4c6.1.1 11 0 11-.3s-3.5-.7-7.7-.8c-4.3-.1-9.3-.4-11-.7l-3.3-.6v-17.7c-.1-9.7-.2-37-.4-60.6-.2-23.7-.1-50.7.4-60 1.4-29.9 2.5-76.1 2.5-106.3V26H26c1.4 0 6.6-.3 11.5-.5 5-.3 26.1-.9 47-1.5s42.3-1.2 47.5-1.5c5.2-.3 18.3-.7 29-1 10.7-.3 22.4-.7 26-1 3.6-.2 15.5-.7 26.5-1 11-.3 22.9-.8 26.5-1 15-1 62-2.8 62.4-2.4.2.2.7 15 1 32.9.4 17.9.9 36.8 1.1 42 .3 5.2.7 23 1 39.5.4 16.5.8 32 1 34.5.2 2.5.7 19.3 1.1 37.5.3 18.1.8 33.2 1 33.4.2.2.5-20 .5-45 .1-25 .3-47.4.4-49.9.1-2.5.6-16.2.9-30.5.4-14.3.9-27.4 1.1-29 .2-1.7.6-10.4 1-19.5.3-9.1.8-18.5 1-21 .2-2.5.7-8 1.1-12.3l.6-7.9 2.4 2.3c3 2.8 3 2.1.3-2.6-1.6-2.7-2-4.7-1.6-8 .3-3.3.1-4.5-.8-4.5-1.9 0-2.3 2.1-1.2 5.3 1.4 4.1 0 5-5.7 3.6-2.5-.6-4.6-1.4-4.6-1.8 0-.4-2.6-.7-5.7-.7-3.2.1-12.1-.5-19.8-1.1-7.7-.7-21.4-1.5-30.5-1.9-9.1-.3-18.7-.7-21.5-1-2.7-.2-45.3-.6-94.5-.9-94.3-.6-117-.9-120.9-2.1-2-.6-2.3-.4-1.8 1z"/><path d="M131.6 29.6c-31.5 6.2-60.7 27.3-80.1 57.9-13.9 21.7-23.4 47.2-28 75.1l-1.5 9.2 2.9 7.8c1.6 4.4 5.5 16.4 8.6 26.8 7.8 26.5 14.5 40.2 24.8 50.6 2.4 2.5 7.3 7.8 10.7 11.8 11.2 13.2 25.8 21.9 44.8 26.9 7.9 2 12.7 2.6 25.7 2.9 8.8.2 15.6.2 15-.1-.5-.2-5.5-1.6-11-3-18.6-4.9-39.4-14.2-54.5-24.6-5.2-3.5-16.6-13.4-27.3-23.7-8.1-7.7-15.9-27.1-18.1-44.7l-.7-5 1.8 2.5c6.8 9.5 26.8 25.2 41.2 32.4 20.2 10.1 48.4 17.3 74.1 19l7.5.5-10-2c-42.9-8.3-89-33.8-110.8-61-8-9.9-9.2-14.7-9.2-35.4.1-18.5.9-21.1 9.3-29.5 12.5-12.3 28.5-19.3 51-22.4 5-.7 4.8-1.6 2.7 14-2.2 16.8-3 30.2-3 48.9 0 15.4.2 17.6 2.3 23.2 1.3 3.4 4 8 5.9 10.3l3.5 4.1 12.2-.7c17-1.1 26.6-.9 31 .6 2.1.7 4.1.8 4.5.4.3-.5 2.3-2 4.3-3.4 4.9-3.3 6.4-6.5 4.3-9.6-.8-1.3-2-2.4-2.5-2.4-2.1 0-.8-1.8 1.7-2.5 2.3-.5 3.2-.2 4.9 2 2.4 3 5.2 3.4 16.9 2.1 12.5-1.3 21.1-3.5 23.9-6.1 3.1-2.9 3.3-4.5.6-5.2-2.6-.7-2.5-1.9 0-3.3 4.9-2.6 15-33.5 15-45.8 0-2.6.6-5.6 1.4-6.7 3.5-5.1 4.9-23.4 2.3-29.8-2-4.6-2.9-4.8-1.6-.5.5 1.8.9 5 .9 7 0 3.3-.5 4.1-4.1 6.4-6.3 3.9-11.6 5.5-20.6 6.1-6 .4-8.3.3-8.3-.6 0-.6.6-1.4 1.4-1.7 2-.8 3-5.9 1.7-8.1-.8-1.5-1-1.5-1.1-.2 0 .8-1.1 3-2.5 4.9-3 4.1-3.3 2.1-.8-5 1.4-3.9 1.5-5.2.4-7.7-2.3-5.5-11.3-13.3-15.3-13.3-1.3 0-1.8.8-1.8 3.1 0 2.2-.9 4-3.1 6-2.7 2.5-8.7 5.2-9.8 4.3-.2-.2.4-3.4 1.3-7.1 1-3.7 2.1-8.2 2.5-9.8.9-3.5 2.2-3.5 9.6.1 8.8 4.2 13.9 7.9 17.4 12.5 2.5 3.2 3.2 3.7 2.6 1.9-2.1-6.9-13.4-18.2-18.4-18.4-1.4-.1-2.6-.5-2.6-1.1 0-1.3 11.1-.8 19.5 1 7.5 1.6 15.2 4.7 22 9l4.5 2.8-3-3.3c-1.6-1.7-5.7-4.5-9.1-6.1-10.7-5.2-35.6-9.7-42.9-7.7-1.6.4-2 1.4-2.1 4.9-.1 2.5-.7 8.4-1.4 13.3-1.4 9.7-1 10.6 4 10.6h2.4l-2.2 1.6c-2.6 1.8-2.8 4.6-.6 6.8 2.2 2.3 3.2 1.2 2.8-2.9-.2-2.9.1-3.6 1.9-3.9 1.2-.3 4.5-1 7.4-1.6 5.7-1.3 9.2-.2 9.4 2.8.2 4-.3 9.6-1.1 11.1-.4.9-1.6 6.1-2.5 11.5-1 5.5-3.7 17.7-6 27-3.2 12.9-4.6 17-5.6 16.6-.8-.2-2.9-.4-4.6-.4-1.8 0-3.3-.3-3.3-.8s2.7-11.5 6-24.6c3.4-13 6-25 5.8-26.7-.3-3.4-5-6.7-5.6-3.9-.2.8.2 2.1.8 2.9 2 2.4-.8 7-5.6 9.4-4.5 2.3-16.1 2.9-20.8 1.1-1.8-.6-3.4-.6-5 .1-6 2.8-22.1-9.1-26.7-19.6-2.4-5.5-1.9-9.2 1.9-13.7 4.1-4.9 9.4-6.8 19.3-6.8 7.6 0 8.8.2 10.6 2.2 1.1 1.3 2.3 3.6 2.7 5.1.7 3.1 6.1 6.1 9.9 5.5 1.7-.3 1-1.3-4.2-6.3-3.5-3.3-6.7-7-7.2-8.2-1.1-3-5-3.8-11.2-2.3-2.9.7-8.5 1.2-12.5 1.1-6.8-.2-7.4 0-10.2 2.8-1.7 1.6-3.3 4.3-3.6 6-.7 3.4-2 3.8-7 1.9-3.1-1.1-4-.8-12.6 3.4-15.3 7.6-37.6 22-46 29.7-3.7 3.3-3.6 1.3.2-6.8 6-12.7 17.4-26 28-32.7 4.1-2.6 5.7-4.4 8.5-10.2 8.9-17.7 30.5-29 56.5-29.4 12.3-.2 37.1 2.5 48.5 5.2 18.6 4.4 35.6 12.3 56 26.2 7.5 5.1 14.7 9.9 16 10.6 7.7 4.1 17.6 22.5 22.2 41.2 2.2 9.2 2 27.7-.4 35.4l-1.9 6-3.3-6c-8.9-15.7-26.6-31.6-40.7-36.4-9.3-3.2-9.4-2.3-.4 3.2 15 9.2 28.2 24.4 34.9 40.3 5.8 13.8 7.7 31.5 4.1 38.5-2.2 4.3-7.3 22.1-6.5 22.8.8.8-6.5 13.3-12 20.7-6.3 8.5-18.9 20.7-27.4 26.4-14.3 9.7-33.2 17.1-49.6 19.3-12.2 1.6-10.1 3.4 2.9 2.4 18-1.2 33-6.2 60.6-20.1 26.6-13.3 24.5-11.8 27-19.4 1.3-3.6 5.4-12.9 9.3-20.6 12.7-25.3 13.9-27.9 16.4-35 3.3-9.6 4-18.6 2-27.1-.9-3.8-1.8-10.7-2.1-15.4-.6-11.3-2.9-22-7.7-36.5-4.5-13.6-19.4-44.4-24.2-50.2-16.2-19.5-32.7-31.9-49.8-37.7-20.6-6.9-63.3-10.6-81.3-7zm54.3 56.5c1.7 1.7 3.1 3.4 3.1 3.8 0 .4-2 .7-4.6.7-4-.1-4.4-.3-4-2.1.3-1.1.6-2.8.6-3.8 0-2.5 1.4-2.1 4.9 1.4zm-63.7 31.5c2.5 1.7 8.4 4.4 13 6 7.4 2.6 9.7 2.9 20.4 2.9 8.8 0 12.5-.4 13.7-1.4 1.5-1.2 1.7-1 1.7 1.3 0 3.5-2.4 17.5-6.6 38.6-2 9.6-3.7 18.5-3.9 19.8-.1 1.2-.4 2.4-.6 2.6-2.2 1.8-15.1 9.7-17.2 10.5-7.2 2.8-20.7 0-27.6-5.7-10.6-8.6-16.1-16.7-16.1-23.7 0-1.1 1.8-9.3 4-18 2.2-8.8 5-23.2 6.2-32l2.2-16 3 6c2.3 4.3 4.5 6.9 7.8 9.1zm102.8-5.7c0 .5-1.2 4.9-2.6 9.7-1.4 4.9-3.2 11.1-3.9 13.9-.8 2.7-3 10.6-5 17.5-1.9 6.9-4 14.5-4.6 16.9-1.5 6.5-4.1 9.5-11.1 12.6-6.8 3-19 4.5-21.8 2.6-1.3-.9-.7-4.2 4.3-24.3 3.2-12.8 6.2-26.5 6.8-30.3 2.1-15.3 3.1-16.4 13.9-15.8 4.4.2 8.8-.3 13.5-1.6 8-2.2 10.5-2.5 10.5-1.2zm-53.2 61.4c.2 1 .1 2.6-.3 3.5-.6 1.5-.8 1.3-2-.8-.8-1.4-1.4-3.1-1.5-3.8 0-2 3.4-1 3.8 1.1zM308.2 240c0 1.4.2 1.9.5 1.2.2-.6.2-1.8 0-2.5-.3-.6-.5-.1-.5 1.3z"/><path d="M308.8 278.6l.3 32.4h-2.4c-1.2 0-4.1-1-6.2-2.1-4.8-2.5-18.2-3.4-58.5-3.8-14-.1-27.5-.4-30-.6-2.5-.1-32.2-.6-66-1s-62.3-.9-63.3-1.1c-.9-.1-1.7.1-1.7.5 0 .5 13.4 1.1 29.8 1.5 16.3.4 35.6.9 42.7 1.1 7.2.3 26.1.7 42 1 16 .3 34.4.8 41 1 54.2 2.2 61.1 2.7 64.3 4.2 1.8.8 3.4 1.9 3.7 2.2.2.4 3.3-.6 6.8-2.3 6.2-2.8 6.4-3.1 5.1-5.1-3.1-4.7-6.4-31.5-6.4-51.7 0-4.2-.3-7.9-.7-8.1-.5-.3-.7 14.1-.5 31.9zM63.8 302.7c1.8.2 4.5.2 6 0s0-.4-3.3-.4-4.5.2-2.7.4zM77 302.4c0 .2.7.7 1.6 1 .8.3 1.2.2.9-.4-.6-1-2.5-1.4-2.5-.6z"/></svg>